# xmcd
#
# Track frame offsets:
#	150
#	19680
#	38503
#	54241
#
# Disc length: 980 seconds
#
# Revision: 0
# Processed by: cddbd v1.5.2PL0 Copyright (c) Steve Scherf et al.
# Submitted via: audiograbber 1.83.01
#
DISCID=2103d204
DTITLE=Orzo - Fuoriorario
DYEAR=2006
DGENRE=Blues
TTITLE0=Se Un Angelo Sei
TTITLE1=Mai
TTITLE2=Fuoriorario
TTITLE3=Favola Blues
EXTD=
EXTT0=
EXTT1=
EXTT2=
EXTT3=
PLAYORDER=
